<?xml version="1.0" encoding="UTF-8"?>
<svg width="821px" height="734px" viewBox="0 0 821 734" version="1.1" xmlns="http://www.w3.org/2000/svg" xmlns:xlink="http://www.w3.org/1999/xlink">
    <title>otp_sync</title>
    <g id="Page-1" stroke="none" stroke-width="1" fill="none" fill-rule="evenodd">
        <g id="phone-outgoing-svgrepo-com" transform="translate(0, 34)">
            <line x1="787.672615" y1="66.6666667" x2="700" y2="0" id="Path" stroke="#000000" stroke-width="66.6666667" stroke-linecap="round" stroke-linejoin="round"></line>
            <line x1="700" y1="-4.64905892e-15" x2="589.959347" y2="59.8873058" id="Path" stroke="#000000" stroke-width="66.6666667" stroke-linecap="round" stroke-linejoin="round"></line>
            <path d="M700,0 C678.040857,198.378788 634.72079,321.20362 570.0398,368.474497 C541.534261,389.30723 410.4849,86.2535629 373.265357,100 C341.775951,111.630104 317.354165,222.95416 300,433.972167" id="Path" stroke="#000000" stroke-width="66.6666667" stroke-linecap="round" stroke-linejoin="round"></path>
            <path d="M516.666667,700 C231.319667,700 0,468.68 0,183.333333 C0,170.459333 0.471,157.695333 1.39633333,145.057667 C2.45833333,130.554 2.98933333,123.302333 6.79,116.701 C9.938,111.233667 15.5166667,106.048667 21.1993333,103.308333 C28.0603333,100 36.0626667,100 52.067,100 L145.977333,100 C159.436,100 166.165333,100 171.934,102.215 C177.029667,104.171667 181.567,107.349667 185.147333,111.47 C189.200333,116.134333 191.5,122.458667 196.099667,135.107 L234.97,242.001667 C240.32,256.717667 242.996667,264.075667 242.543333,271.056667 C242.143333,277.212333 240.04,283.136 236.473333,288.168667 C232.428667,293.876 225.715,297.904333 212.287667,305.960667 L166.666667,333.333333 C206.73,421.63 278.336667,493.33 366.666667,533.333333 L394.04,487.713333 C402.096667,474.283333 406.123333,467.57 411.83,463.526667 C416.863333,459.96 422.786667,457.856667 428.943333,457.456667 C435.923333,457.003333 443.283333,459.68 458,465.03 L564.893333,503.9 C577.54,508.5 583.866667,510.8 588.53,514.853333 C592.65,518.433333 595.83,522.97 597.783333,528.066667 C600,533.833333 600,540.563333 600,554.023333 L600,647.933333 C600,663.936667 600,671.94 596.69,678.8 C593.95,684.483333 588.766667,690.063333 583.3,693.21 C576.696667,697.01 569.446667,697.54 554.943333,698.603333 C542.303333,699.53 529.54,700 516.666667,700 Z" id="Path-Copy" fill="#000000" fill-rule="nonzero"></path>
        </g>
    </g>
</svg>